# xmcd
#
# Track frame offsets: 
#        150
#        34194
#        83089
#        124436
#        145578
#
# Disc length: 2345 seconds
#
# Revision: 2
# Processed by: cddbd v1.5.2PL0 Copyright (c) Steve Scherf et al.
# Submitted via: ExactAudioCopy v0.99pb4
#
DISCID=3d092705
DTITLE=Gov't Mule - Deja Voodoo - Bonus Disc (Chicago 10.22.04)
DYEAR=2004
DGENRE=Rock
TTITLE0=Slackjaw Jezebel
TTITLE1=Thorazine Shuffle
TTITLE2=About To Rage
TTITLE3=Perfect Shelter
TTITLE4=Beautiful Broken
EXTD=
EXTT0=
EXTT1=
EXTT2=
EXTT3=
EXTT4=
PLAYORDER=
